<svg xmlns="http://www.w3.org/2000/svg" xmlns:xlink="http://www.w3.org/1999/xlink" width="371.261" height="393.493" viewBox="0 0 371.261 393.493"><defs><style>.a{fill:none;}.b,.bc,.bk,.e{isolation:isolate;}.c{clip-path:url(#a);}.d{fill:#d0e7ff;}.ai,.aj,.ak,.am,.as,.at,.au,.az,.ba,.bb,.be,.bf,.bm,.bu,.bw,.by,.bz,.ca,.ch,.d,.i,.n,.w,.x,.y{fill-rule:evenodd;}.e,.s{opacity:0.5;}.bc,.bk,.e{mix-blend-mode:multiply;}.f{clip-path:url(#c);}.g{clip-path:url(#d);}.h{fill:url(#e);}.i{fill:#fff;}.j{clip-path:url(#f);}.k{fill:url(#g);}.l{opacity:0.2;}.m{clip-path:url(#i);}.n{fill:#6d6afd;}.o{clip-path:url(#j);}.p{fill:url(#k);}.q{clip-path:url(#m);}.r{clip-path:url(#n);}.t{clip-path:url(#o);}.u{clip-path:url(#p);}.v{clip-path:url(#q);}.w{fill:#18274d;}.x{fill:#2b468a;}.y{fill:#c9c9c9;}.z{clip-path:url(#r);}.aa{clip-path:url(#s);}.ab{clip-path:url(#t);}.ac{clip-path:url(#u);}.ad{clip-path:url(#v);}.ae{clip-path:url(#w);}.af{clip-path:url(#x);}.ag{clip-path:url(#y);}.ah{fill:url(#z);}.ai{fill:#f2f4ff;}.aj,.av{fill:#ffb604;}.ak,.aw{fill:#ffce05;}.al{clip-path:url(#aa);}.am{fill:#1895f0;}.an{clip-path:url(#ab);}.ao{clip-path:url(#ac);}.ap{fill:url(#ad);}.aq{clip-path:url(#ae);}.ar{clip-path:url(#af);}.as{fill:#f4a800;}.at{fill:#c5dbf1;}.au{fill:#dce8f8;}.ax{clip-path:url(#ag);}.ay{clip-path:url(#ah);}.az{fill:#ffa698;}.ba{fill:#161f69;}.bb{fill:#4691af;}.bc{opacity:0.3;}.bd{clip-path:url(#ai);}.be{fill:#1e2353;}.bf{fill:#c18500;}.bg{clip-path:url(#aj);}.bh{fill:url(#ak);}.bi{clip-path:url(#am);}.bj{fill:url(#an);}.bk{opacity:0.35;}.bl{clip-path:url(#ap);}.bm{fill:#9fd3fb;}.bn{clip-path:url(#aq);}.bo{fill:url(#ar);}.bp{clip-path:url(#at);}.bq{fill:url(#au);}.br{clip-path:url(#aw);}.bs{clip-path:url(#ax);}.bt{fill:url(#ay);}.bu{fill:#16193b;}.bv{clip-path:url(#ba);}.bw{fill:#9789e9;}.bx{clip-path:url(#bb);}.by{fill:#6266d7;}.bz{fill:#d8fff7;}.ca{fill:#9fd2fb;}.cb{clip-path:url(#bc);}.cc{fill:url(#bd);}.cd{clip-path:url(#bf);}.ce{fill:url(#bg);}.cf{clip-path:url(#bi);}.cg{fill:url(#bj);}.ch{fill:#3f3f3f;}</style><clipPath id="a"><rect class="a" width="371.261" height="393.493"/></clipPath><clipPath id="c"><rect class="a" width="97.838" height="107.415"/></clipPath><clipPath id="d"><path class="a" d="M241.173,422.506c0-6.988,4.968-9.828,11.083-6.279l75.508,43.951c6.06,3.494,11.029,12.011,10.974,19l-.273,35.051c0,6.988-4.968,9.828-11.083,6.279l-75.508-43.9c-6.115-3.494-11.029-12.066-10.974-19Z" transform="translate(-240.899 -414.697)"/></clipPath><linearGradient id="e" x1="-0.803" y1="1.287" x2="-0.799" y2="1.287" gradientUnits="objectBoundingBox"><stop offset="0" stop-color="#6d6afe"/><stop offset="1" stop-color="#3fb0f7"/></linearGradient><clipPath id="f"><path class="a" d="M240.9,422.08v6.388l92.706,53.778v-6.279c0-6.661-4.368-14.85-10.428-18.181L251.437,416.02a9.445,9.445,0,0,0-4.641-1.42c-3.44,0-5.842,2.784-5.842,7.48" transform="translate(-240.9 -414.6)"/></clipPath><linearGradient id="g" x1="-1.343" y1="2.328" x2="-1.338" y2="2.328" xlink:href="#e"/><clipPath id="i"><rect class="a" width="25.442" height="30.968"/></clipPath><clipPath id="j"><path class="a" d="M257.97,484.452c.382,4.477,3.767,8.954,7.534,9.937s6.5-1.856,6.115-6.333-3.767-8.954-7.534-9.937a5.735,5.735,0,0,0-1.474-.218c-3,0-4.968,2.675-4.641,6.552" transform="translate(-257.935 -477.9)"/></clipPath><linearGradient id="k" x1="-7.798" y1="8.907" x2="-7.767" y2="8.907" xlink:href="#e"/><clipPath id="m"><rect class="a" width="52.25" height="37.175"/></clipPath><clipPath id="n"><rect class="a" width="30.847" height="21.954"/></clipPath><clipPath id="o"><rect class="a" width="12.011" height="10.466"/></clipPath><clipPath id="p"><rect class="a" width="36.526" height="47.079"/></clipPath><clipPath id="q"><rect class="a" width="149.378" height="84.615"/></clipPath><clipPath id="r"><rect class="a" width="40.675" height="26.491"/></clipPath><clipPath id="s"><rect class="a" width="105.209" height="177.949"/></clipPath><clipPath id="t"><rect class="a" width="26.261" height="43.034"/></clipPath><clipPath id="u"><rect class="a" width="43.459" height="32.824"/></clipPath><clipPath id="v"><rect class="a" width="53.123" height="47.576"/></clipPath><clipPath id="w"><rect class="a" width="93.307" height="59.544"/></clipPath><clipPath id="x"><rect class="a" width="34.56" height="120.9"/></clipPath><clipPath id="y"><path class="a" d="M216.525,180.7l22.767,13.158a9.227,9.227,0,0,1,4.2,7.261l.109,97.456c0,2.675-1.911,3.767-4.2,2.4L209.1,283.4V259.32Z" transform="translate(-209.1 -180.7)"/></clipPath><linearGradient id="z" x1="-2.555" y1="2.391" x2="-2.542" y2="2.391" gradientUnits="objectBoundingBox"><stop offset="0" stop-color="#d870ac"/><stop offset="1" stop-color="#58469c"/></linearGradient><clipPath id="aa"><rect class="a" width="71.249" height="26.802"/></clipPath><clipPath id="ab"><rect class="a" width="38.273" height="133.583"/></clipPath><clipPath id="ac"><path class="a" d="M398.5,163.521l4.641-2.621,33.632,92.215-.164,39.31-5.3,2.02-28.063-16.27a10.081,10.081,0,0,1-4.586-7.971Z" transform="translate(-398.5 -160.9)"/></clipPath><linearGradient id="ad" x1="-4.478" y1="2.257" x2="-4.466" y2="2.257" xlink:href="#z"/><clipPath id="ae"><rect class="a" width="12.284" height="14.949"/></clipPath><clipPath id="af"><rect class="a" width="6.006" height="7.311"/></clipPath><clipPath id="ag"><rect class="a" width="24.623" height="44.83"/></clipPath><clipPath id="ah"><rect class="a" width="74.853" height="41.488"/></clipPath><clipPath id="ai"><rect class="a" width="28.991" height="86.875"/></clipPath><clipPath id="aj"><path class="a" d="M468.145,385.711c.928.71,2.621.983,2.566,1.856s5.46,2.075,5.46,2.02a9.821,9.821,0,0,0-3-3.931c-3.057-1.474-2.566-.328-5.241-2.457-1.365.655-.382,2.184.218,2.566" transform="translate(-467.238 -383.2)"/></clipPath><linearGradient id="ak" x1="-22.327" y1="16.401" x2="-22.279" y2="16.401" gradientUnits="objectBoundingBox"><stop offset="0" stop-color="#ff8a78"/><stop offset="0.37" stop-color="#ff9584"/><stop offset="1" stop-color="#ffa799"/></linearGradient><clipPath id="am"><path class="a" d="M547.927,441.755l-17.8,3.44a1.474,1.474,0,0,0-1.146,1.693l4.586,23.859a1.474,1.474,0,0,0,1.693,1.147l17.8-3.44a1.474,1.474,0,0,0,1.146-1.693L549.62,442.9a1.474,1.474,0,0,0-1.42-1.2h-.273" transform="translate(-528.96 -441.7)"/></clipPath><linearGradient id="an" x1="-9.78" y1="4.606" x2="-9.762" y2="4.606" gradientUnits="objectBoundingBox"><stop offset="0" stop-color="#93e0f4"/><stop offset="1" stop-color="#92cefc"/></linearGradient><clipPath id="ap"><rect class="a" width="22.985" height="13.256"/></clipPath><clipPath id="aq"><path class="a" d="M532.7,475.026c-.71.437-.218,2.348.055,3.494a10.34,10.34,0,0,0,.983,3.167c.437.491,4.095.819,6.224.874a4.422,4.422,0,0,0,2.348-.764,4.05,4.05,0,0,1,2.02-.764c1.037-1.638-.164-3.658-.928-5.241a16.261,16.261,0,0,1-5.46-.491,22.113,22.113,0,0,0-3.931-.6,3.386,3.386,0,0,0-1.31.218" transform="translate(-532.328 -474.697)"/></clipPath><linearGradient id="ar" x1="-35.76" y1="10.103" x2="-35.693" y2="10.103" gradientUnits="objectBoundingBox"><stop offset="0" stop-color="#ffb89e"/><stop offset="1" stop-color="#ffa799"/></linearGradient><clipPath id="at"><path class="a" d="M556.137,395.822c-.109,1.037-.273,1.965-.437,2.948.6,2.511,6.5.382,7.261-2.784a18.56,18.56,0,0,1,.218-4.586Z" transform="translate(-555.7 -391.4)"/></clipPath><linearGradient id="au" x1="-32.404" y1="16.198" x2="-32.345" y2="16.198" xlink:href="#ak"/><clipPath id="aw"><rect class="a" width="86.7" height="48.062"/></clipPath><clipPath id="ax"><path class="a" d="M160.873,307.674a2.238,2.238,0,0,1-2.184-.874c-.655.6-.328,3.44.055,4.586s2.73,1.2,3.112,2.02c-.055-.928-.437-4.259.546-5.842.328-.546.655-.491,1.583-.218a1.57,1.57,0,0,0,1.693-.764c-.764-.055-.655-.273-1.2-.382h-.055c-.437,0-2.184,1.2-3.494,1.474" transform="translate(-158.314 -306.2)"/></clipPath><linearGradient id="ay" x1="-8.411" y1="22.908" x2="-8.357" y2="22.908" gradientUnits="objectBoundingBox"><stop offset="0" stop-color="#ff8a78"/><stop offset="1" stop-color="#ffa799"/></linearGradient><clipPath id="ba"><rect class="a" width="20.474" height="68.94"/></clipPath><clipPath id="bb"><rect class="a" width="6.497" height="18.263"/></clipPath><clipPath id="bc"><path class="a" d="M68.1,375.423c2.348,1.092,1.42,2.511,3.713,5.3.71.874,4.586,3.6,5.787,3.276a22.819,22.819,0,0,0,4.313-2.348,12.993,12.993,0,0,0,3.658-3.112,14.8,14.8,0,0,0,1.747-3.276c.164-.819-3.986,1.256-5.569,1.42a2.184,2.184,0,0,1-1.147-.218l1.747-1.583c-1.638-.928-2.566-1.965-3.713-2.238s-3-.546-3.876-.655a17.845,17.845,0,0,1-2.238-.328l-.874-.328L71.157,371v.109a10,10,0,0,1-1.529-.71Z" transform="translate(-68.1 -370.4)"/></clipPath><linearGradient id="bd" x1="-1.983" y1="8.697" x2="-1.954" y2="8.697" xlink:href="#ar"/><clipPath id="bf"><path class="a" d="M64.055,266.367c-.328,3.6,3.112,9.937,9.391,9.118a8.247,8.247,0,0,1,.109-1.147l.218-1.147c.218-1.147-.055-3.33.218-5.9L64.218,263.2c-.055,1.256-.109,2.293-.218,3.167" transform="translate(-64 -263.2)"/></clipPath><linearGradient id="bg" x1="-1.892" y1="15.312" x2="-1.859" y2="15.312" xlink:href="#ay"/><clipPath id="bi"><path class="a" d="M78.954,251.919c-1.693,4.095-1.529,8.408.71,11.356.491.6,3.658,3.986,7.261,1.2A28.937,28.937,0,0,0,88.454,260c.382-1.8-.6-2.293-.273-3.767a15.4,15.4,0,0,1,.491-1.8,3.221,3.221,0,0,0,.164-1.2,15.669,15.669,0,0,0-.273-2.129,14.022,14.022,0,0,1-9.609.764" transform="translate(-77.817 -251.1)"/></clipPath><linearGradient id="bj" x1="-1.983" y1="15.3" x2="-1.955" y2="15.3" xlink:href="#ar"/></defs><g transform="translate(185.631 196.747)"><g class="b" transform="translate(-185.631 -196.747)"><g class="c"><g class="c"><path class="d" d="M244.134,420.36c0-2.293-.819-3.767.164-5.023a7.486,7.486,0,0,1,3.767-2.075c1.8-.6,4.095-.273,6.552,1.147l71.632,41.712c5.787,3.33,10.428,11.411,10.428,18.017l-.273,33.25c0,2.075-.437,4.7-2.02,6.115a8.954,8.954,0,0,1-4.532,2.184c-1.474.109-2.075-1.256-3.931-2.348l-71.632-41.712c-5.787-3.33-10.428-11.411-10.428-18.017Z" transform="translate(-110.698 -187.503)"/><g class="e" transform="translate(131.525 226.415)"><g class="f"><g class="g" transform="translate(0 -0.002)"><rect class="h" width="138.513" height="144.169" transform="translate(-45.993 22.193) rotate(-27.7)"/></g></g></g><path class="i" d="M241.173,422.159c0-6.606,4.7-9.281,10.483-5.951l71.632,41.712c5.787,3.33,10.428,11.411,10.428,18.017l-.273,33.25c0,6.606-4.7,9.281-10.483,5.951l-71.632-41.712c-5.787-3.33-10.428-11.411-10.428-18.017Z" transform="translate(-109.375 -188.32)"/></g><g class="j" transform="translate(131.525 226.36)"><rect class="k" width="96.528" height="72.904" transform="matrix(0.998, -0.058, 0.058, 0.998, -3.88, 0.245)"/></g><g class="c"><path class="i" d="M255.512,429.245a3.84,3.84,0,0,1,2.511,3.33c.109,1.529-.764,2.457-2.02,2.129a3.84,3.84,0,0,1-2.511-3.33c-.109-1.529.764-2.457,2.02-2.129" transform="translate(-115.088 -194.859)"/><path class="i" d="M268.412,437.045a3.84,3.84,0,0,1,2.511,3.33c.109,1.529-.764,2.457-2.02,2.129a3.84,3.84,0,0,1-2.511-3.33c-.109-1.529.764-2.457,2.02-2.129" transform="translate(-120.945 -198.401)"/><path class="i" d="M281.312,444.945a3.84,3.84,0,0,1,2.511,3.33c.109,1.529-.764,2.457-2.02,2.129a3.84,3.84,0,0,1-2.511-3.33c-.109-1.529.764-2.457,2.02-2.129" transform="translate(-126.802 -201.988)"/><g class="l" transform="translate(134.964 253.823)"><g class="m"><path class="n" d="M258.594,465.305c6.988,1.856,13.213,10.1,13.977,18.454s-4.368,13.595-11.356,11.793S248,485.452,247.237,477.1s4.368-13.595,11.356-11.793" transform="translate(-247.183 -464.923)"/></g></g></g><g class="o" transform="translate(140.825 260.92)"><rect class="p" width="17.799" height="14.725" transform="translate(-0.665 17.59) rotate(-88.8)"/></g><g class="c"><g class="l" transform="translate(164.119 269.055)"><g class="q"><path class="n" d="M300.655,494.688c0-1.747,1.256-2.457,2.784-1.529l46.626,26.48a6.279,6.279,0,0,1,2.784,4.859v3.494c0,1.747-1.256,2.457-2.784,1.529l-46.681-26.48a6.224,6.224,0,0,1-2.784-4.859Z" transform="translate(-300.6 -492.777)"/></g></g><g class="l" transform="translate(164.119 282.704)"><g class="r"><path class="n" d="M300.7,518.932c0-1.037.764-1.474,1.638-.928l27.572,15.615a3.713,3.713,0,0,1,1.638,2.894v2.075c0,1.037-.764,1.474-1.638.928L302.338,523.9a3.713,3.713,0,0,1-1.638-2.894Z" transform="translate(-300.645 -517.785)"/></g></g><g class="s" transform="translate(204.194 272.386)"><g class="t"><path class="i" d="M374,499.685a.637.637,0,0,1,1.037-.6l9.937,5.35a2.293,2.293,0,0,1,1.037,1.8v2.457a.637.637,0,0,1-1.037.6l-9.937-5.405a2.293,2.293,0,0,1-1.037-1.8Z" transform="translate(-374 -498.921)"/></g></g><g class="l" transform="translate(334.736 152.981)"><g class="u"><path class="i" d="M613.3,282.427c0-2.02,1.419-2.839,3.167-1.8l30.083,17.362a6.988,6.988,0,0,1,3.167,5.514v21.511c0,2.02-1.419,2.839-3.167,1.8l-30.083-17.362a6.989,6.989,0,0,1-3.167-5.514Z" transform="translate(-613.191 -280.189)"/></g></g><g class="s" transform="translate(112.743 278.118)"><g class="v"><path class="i" d="M352.221,577.131l-114.381-65.3c-4.259-1.965-10.483-3.767-14.632-1.256l-10.646,6.5c-2.129,1.31-9.172,5.624-4.477,8.19,13.868,7.589,102.424,59.347,116.51,66.991,2.675,1.474,6.552,1.966,10.646,1.638a26.08,26.08,0,0,0,11.52-3.44l4.259-2.621c3-1.856,4.7-3.876,4.859-5.842s-1.037-3.658-3.658-4.859" transform="translate(-206.501 -509.376)"/></g></g><path class="w" d="M353.827,339.879c0,5.569-2.02,9.5-5.187,11.3l-5.023,3c-17.253-7.371-10.865-94.89-11.9-119.786l5.3-130.542c-4.477-7.807-21.621-14.577-17.635-30.52l-50.612-23.7c-2.238-1.529-61.313-35.761-50.721-42.149l5.3-3.167c3.931-2.293,8.9-.874,12.557,1.256L336.629,63.344c9.882,5.678,17.635,19.491,17.635,30.52Z" transform="translate(-98.421 -1.431)"/><path class="x" d="M209.337,21.458c0-5.46,1.911-9.336,4.968-11.192s7.753-1.747,12.776,1.092L327.813,69.176C337.586,74.8,345.448,88.5,345.448,99.7l-.437,246.07c-.055,11.192-7.971,15.724-17.744,10.1L226.535,298.048c-9.773-5.624-17.635-19.327-17.635-30.52Z" transform="translate(-94.846 -4.096)"/><path class="y" d="M219.282,41.623c.055-10.319,7.316-14.468,16.325-9.282L328.313,85.52c8.954,5.187,16.215,17.744,16.215,28.063l-.382,231.11c-.055,10.319-7.316,14.468-16.325,9.282l-92.706-53.123c-9.009-5.187-16.215-17.744-16.215-28.063Z" transform="translate(-99.387 -13.67)"/><path class="i" d="M317.679,159.428c-7.1-4.095-12.776-13.977-12.776-22.112S310.69,125.9,317.733,130s12.776,13.977,12.776,22.112-5.787,11.411-12.83,7.316m0,3.44c8.736,5.023,15.833.983,15.833-9.063s-7.043-22.276-15.779-27.3-15.833-.983-15.833,9.063,7.043,22.276,15.779,27.3" transform="translate(-137.071 -56.457)"/><path class="i" d="M311.2,203.34c0-.928.655-1.31,1.474-.819l18.454,10.428a3.331,3.331,0,0,1,1.474,2.566v1.856c0,.928-.655,1.31-1.474.819l-18.454-10.428A3.33,3.33,0,0,1,311.2,205.2Z" transform="translate(-141.293 -91.852)"/><g class="s" transform="translate(160.297 113.562)"><g class="z"><path class="i" d="M293.6,208.948c0-.819.6-1.147,1.31-.71l38.109,21.511a2.948,2.948,0,0,1,1.31,2.293v1.638c0,.819-.6,1.147-1.31.71L294.91,212.879a2.894,2.894,0,0,1-1.31-2.293Z" transform="translate(-293.6 -208.02)"/></g></g><g class="l" transform="translate(130.16 158.987)"><g class="aa"><path class="i" d="M238.509,295.033c0-3.385,2.4-4.8,5.405-3.057,31.5,18.072,62.9,36.744,94.4,54.816a11.891,11.891,0,0,1,5.35,9.282l-.109,109.249c0,3.385-2.4,4.8-5.405,3.057-31.5-18.072-62.9-36.744-94.4-54.816a11.891,11.891,0,0,1-5.351-9.282Z" transform="translate(-238.4 -291.212)"/></g></g><g class="s" transform="translate(169.743 200.59)"><g class="ab"><path class="i" d="M311,382.6a2.47,2.47,0,0,1,.983-2.184,2.4,2.4,0,0,1,2.457.218l4.2,2.4a21.948,21.948,0,0,0,6.224,5.733c2.293,1.31,4.368,1.747,6.006,1.31l3,1.693a7.48,7.48,0,0,1,3.385,5.9v12.776L311,395.1Zm13.7,3.658c4.422,2.566,7.753.655,7.425-4.2s-4.2-10.974-8.626-13.486-7.753-.655-7.425,4.2,4.2,10.974,8.626,13.486" transform="translate(-310.945 -367.424)"/></g></g><g class="l" transform="translate(161.171 237.716)"><g class="ac"><path class="i" d="M295.2,436.085c0-.655.437-.928,1.037-.6l41.385,23.75a2.238,2.238,0,0,1,1.037,1.747v6.442c0,.655-.437.928-1.037.6l-41.385-23.75a2.239,2.239,0,0,1-1.037-1.747Z" transform="translate(-295.2 -435.375)"/></g></g><g class="l" transform="translate(156.312 267.253)"><g class="ad"><path class="i" d="M286.3,491c0-1.419.983-1.965,2.238-1.256l48.592,27.845a4.914,4.914,0,0,1,2.238,3.822v13.977c0,1.42-.983,1.965-2.238,1.256L288.538,508.8a4.914,4.914,0,0,1-2.239-3.822Z" transform="translate(-286.3 -489.469)"/></g></g><g class="l" transform="translate(136.22 240.392)"><g class="ae"><path class="i" d="M249.5,440.894c0-.546.382-.764.874-.491,11.957,6.825,79.6,44.824,91.56,51.649a1.965,1.965,0,0,1,.874,1.529v5.569c0,.546-.382.764-.874.491-11.957-6.879-79.6-44.824-91.5-51.7a1.966,1.966,0,0,1-.874-1.529Z" transform="translate(-249.5 -440.293)"/></g></g><g class="e" transform="translate(114.108 98.657)"><g class="af"><g class="ag" transform="translate(0.055)"><rect class="ah" width="43.128" height="124.091" transform="translate(-8.299 0.835) rotate(-4.004)"/></g></g></g><path class="ai" d="M122.4,126.162l1.911-1.037a3.057,3.057,0,0,1,2.457.437c23.095,13.267,46.189,26.971,69.338,40.238a8.681,8.681,0,0,1,3.931,6.825l.109,91.5a2.894,2.894,0,0,1-.983,2.4c-.71.546-2.238,1.693-3.44,1.037-23.095-13.267-45.752-28.172-68.9-41.439a8.681,8.681,0,0,1-3.931-6.825Z" transform="translate(-55.573 -56.769)"/><path class="i" d="M120.3,129.385c0-2.511,1.8-3.494,3.986-2.239,23.095,13.267,46.189,26.971,69.338,40.238a8.681,8.681,0,0,1,3.931,6.825l.109,91.5c0,2.511-1.8,3.494-3.986,2.238-23.095-13.267-46.189-26.971-69.338-40.238a8.681,8.681,0,0,1-3.931-6.825Z" transform="translate(-54.62 -57.481)"/><path class="aj" d="M120.3,129.385c0-2.511,1.8-3.494,3.986-2.239,23.095,13.267,46.189,26.971,69.338,40.238a8.681,8.681,0,0,1,3.931,6.825v71.9l-77.2-44.278Z" transform="translate(-54.62 -57.481)"/><path class="ak" d="M130.8,281.1c0-1.092.764-1.529,1.693-.928l21.293,12.011a3.822,3.822,0,0,1,1.693,2.948v2.129c0,1.092-.764,1.529-1.693.928L132.493,286.18a3.822,3.822,0,0,1-1.693-2.948Z" transform="translate(-59.387 -127.084)"/><path class="ak" d="M130.755,298.44c0-.928.655-1.31,1.529-.819l43.9,24.787a3.385,3.385,0,0,1,1.474,2.621v1.911c0,.928-.655,1.31-1.529.819l-43.951-24.787a3.385,3.385,0,0,1-1.474-2.621Z" transform="translate(-59.341 -135.03)"/><path class="ak" d="M183.355,209.5l-.109,45.48,12.776,7.425.109-45.48Zm-38.327-36.2-.109,60.876,12.776,7.425.109-60.876Zm19.109,21.566-.109,50.448,12.776,7.425.109-50.448ZM125.809,177.5l-.109,45.479,12.776,7.48.109-45.479Z" transform="translate(-57.071 -78.683)"/><g class="e" transform="translate(68.356 115.309)"><g class="al"><path class="am" d="M125.406,212.569a.764.764,0,0,1,.055-1.147,1.092,1.092,0,0,1,1.365.055l12.066,11.3,5.842,2.511,12.557-2.566,7.644-8.353a1.092,1.092,0,0,1,1.365-.164l.218.218,17.908,19.218,10.919,2.675a.928.928,0,0,1,.983.819.874.874,0,0,1-.928.874l-11.411-2.675a1.037,1.037,0,0,1-.819-.328l-17.526-18.781L158.6,223.98h0a.983.983,0,0,1-.546.273l-13.213,2.675a1.092,1.092,0,0,1-.655-.055l-6.279-2.675-.328-.218Z" transform="translate(-125.188 -211.204)"/></g></g><path class="i" d="M125.271,212.727a.983.983,0,1,1,1.42-1.31l12.066,13.267,5.842,2.948,12.557-3L164.8,214.8a.983.983,0,0,1,1.365-.164l.218.218,16.98,21.948,12.011-.437a.983.983,0,0,1,.055,1.911l-12.448.491a.983.983,0,0,1-.819-.382l-16.543-21.4-7.043,9.063h0a.983.983,0,0,1-.546.328l-13.213,3.167a.983.983,0,0,1-.655-.055l-6.279-3.112-.328-.218Z" transform="translate(-56.697 -95.78)"/><g class="e" transform="translate(217.57 87.847)"><g class="an"><g class="ao"><rect class="ap" width="47.554" height="135.942" transform="translate(-9.376 0.822) rotate(-4)"/></g></g></g><path class="ai" d="M399.5,160.817l2.129-1.092a3.385,3.385,0,0,1,2.675.491c25.333,14.523,50.612,29.537,75.89,44.06a9.512,9.512,0,0,1,4.313,7.48L484.617,312a2.976,2.976,0,0,1-1.092,2.621c-.71.491-2.457,1.856-3.767,1.092-25.333-14.523-50.12-30.847-75.453-45.37a9.512,9.512,0,0,1-4.313-7.48Z" transform="translate(-181.384 -72.478)"/><path class="i" d="M397.2,164.348c0-2.73,1.966-3.876,4.313-2.457,25.333,14.523,50.612,29.537,75.89,44.06a9.512,9.512,0,0,1,4.313,7.48l.109,100.24c0,2.73-1.965,3.876-4.368,2.457-25.333-14.523-50.612-29.537-75.89-44.06a9.512,9.512,0,0,1-4.313-7.48Z" transform="translate(-180.34 -73.225)"/><path class="aj" d="M397.2,164.348c0-2.73,1.966-3.876,4.313-2.457,25.333,14.523,50.557,29.537,75.89,44.06a9.512,9.512,0,0,1,4.313,7.48l.109,78.784-84.571-48.537Z" transform="translate(-180.34 -73.225)"/><path class="ak" d="M408.7,330.515c0-1.2.819-1.638,1.856-1.037l23.313,13.158a4.2,4.2,0,0,1,1.856,3.276v2.348c0,1.2-.819,1.638-1.856,1.037l-23.313-13.158a4.2,4.2,0,0,1-1.856-3.276Z" transform="translate(-185.561 -149.47)"/><path class="ak" d="M408.7,349.432c0-1.037.764-1.474,1.638-.928l48.1,27.135a3.712,3.712,0,0,1,1.638,2.894v2.075c0,1.037-.764,1.474-1.638.928l-48.1-27.135a3.713,3.713,0,0,1-1.638-2.894Z" transform="translate(-185.561 -158.123)"/><g class="s" transform="translate(283.906 136.821)"><g class="aq"><path class="i" d="M525.535,250.756c3.385.874,6.388,4.859,6.715,8.9s-2.075,6.552-5.46,5.678-6.388-4.859-6.716-8.9,2.075-6.552,5.46-5.678" transform="translate(-520.021 -250.592)"/></g></g><path class="i" d="M528.365,257.428a5.378,5.378,0,0,1,3.44,4.532c.218,2.075-1.092,3.33-2.784,2.894a5.378,5.378,0,0,1-3.44-4.532c-.218-2.075,1.092-3.33,2.784-2.894" transform="translate(-238.617 -116.84)"/><path class="i" d="M409.112,267.874c-1.365-4.259-4.859-12.721-5.241-17.143s2.348-7.371,6.115-6.388,7.152,5.46,7.534,9.991-5.351,9.827-8.408,13.54m.819-20.419c-2.293-.6-3.931,1.092-3.713,3.822s2.293,5.405,4.532,6.006,3.931-1.092,3.713-3.822-2.293-5.405-4.532-6.006" transform="translate(-183.352 -110.852)"/><path class="i" d="M412.128,280.782a.71.71,0,0,0,1.147.819l1.693-2.293a.721.721,0,0,0-1.147-.874l-1.693,2.293m63.879-13.213a.714.714,0,1,0-1.419-.164,22.662,22.662,0,0,1-.491,2.73.71.71,0,0,0,1.365.328,24.826,24.826,0,0,0,.491-2.894m-1.856,7.043a.71.71,0,0,0-1.31-.546,18.5,18.5,0,0,1-1.256,2.4.712.712,0,1,0,1.2.764,20.314,20.314,0,0,0,1.365-2.621m-4.149,6.06a.71.71,0,0,0-.928-1.037,10.482,10.482,0,0,1-2.184,1.529.71.71,0,0,0,.655,1.256,11.9,11.9,0,0,0,2.457-1.747m-6.879,2.948a.71.71,0,1,0,0-1.42,8.517,8.517,0,0,1-2.566-.382.717.717,0,1,0-.437,1.365,9.991,9.991,0,0,0,3,.491m-6.988-2.511a.71.71,0,0,0,.819-1.147,19,19,0,0,1-2.075-1.747.714.714,0,1,0-.983,1.037,21.02,21.02,0,0,0,2.238,1.911m-5.132-5.187a.721.721,0,1,0,1.147-.874c-.546-.764-1.092-1.474-1.638-2.293a.712.712,0,1,0-1.2.764c.546.819,1.092,1.583,1.692,2.348m-3.876-6.06a.71.71,0,0,0,1.2-.71,19.873,19.873,0,0,0-1.638-2.457.71.71,0,0,0-1.092.874,23.891,23.891,0,0,1,1.529,2.293m-4.422-5.132a.71.71,0,0,0,.819-1.147,11.848,11.848,0,0,0-2.675-1.42.71.71,0,0,0-.491,1.31,10.208,10.208,0,0,1,2.348,1.256m-6.224-1.911a.71.71,0,0,0-.055-1.42,13.649,13.649,0,0,0-2.948.491.71.71,0,0,0,.382,1.365,12.175,12.175,0,0,1,2.621-.437m-6.388,2.02a.721.721,0,1,0-.71-1.256,27.734,27.734,0,0,0-2.457,1.529.71.71,0,0,0,.819,1.147,24.676,24.676,0,0,1,2.348-1.474m-5.624,4.04a.717.717,0,1,0-.928-1.092l-2.129,1.965a.71.71,0,0,0,.983.983l2.075-1.911m-4.968,4.968a.717.717,0,1,0-1.092-.928l-1.856,2.184a.717.717,0,0,0,1.092.928l1.856-2.129" transform="translate(-187.078 -118.682)"/><g class="s" transform="translate(221.829 159.315)"><g class="ar"><path class="i" d="M409.063,291.928a5.124,5.124,0,0,1,3.276,4.368c.164,1.965-1.037,3.221-2.675,2.784a5.124,5.124,0,0,1-3.276-4.368c-.164-1.965,1.037-3.221,2.675-2.784" transform="translate(-406.333 -291.819)"/></g></g><path class="i" d="M410.355,295.165a2.566,2.566,0,0,1,1.693,2.184c.109.983-.546,1.638-1.365,1.42a2.566,2.566,0,0,1-1.693-2.184c-.109-.983.546-1.638,1.365-1.42" transform="translate(-185.687 -133.994)"/><path class="aj" d="M145.837,60.35,116.3,43.152l6.879-32.595h.437a.491.491,0,0,1,.437,0l29.592,17.2c-.983-.546-4.914,23.75-7.753,33.359" transform="translate(-52.803 -4.77)"/><path class="as" d="M123.179,10.6c12.394,14.25,27.244,23.04,25.77,35.379l-3.057,14.414L116.3,43.195Z" transform="translate(-52.803 -4.813)"/><path class="ai" d="M143.366,20.535l-.655,33.031L111.7,35.658,111.755,2.9Z" transform="translate(-50.715 -1.317)"/><path class="at" d="M168.555,35.382,169.21,35l-.055,32.758-.655.382Z" transform="translate(-76.504 -15.891)"/><path class="au" d="M111.8,2.582l.655-.382,31.011,17.908-.655.382Z" transform="translate(-50.76 -0.999)"/><path class="at" d="M142.618,49.193v2.075L113.9,34.724V32.65Zm.055-23.75v2.075l-28.718-16.6V8.9Zm0,3.385L113.955,12.285V14.36l28.718,16.6Zm0,3.385L113.955,15.67v2.075l28.718,16.6Zm0,3.385L113.955,19.055V21.13l28.718,16.6Zm0,3.385L113.9,22.44v2.075l28.718,16.6Zm0,3.385L113.9,25.825V27.9l28.718,16.6Zm0,3.385L113.9,29.265v2.075l28.718,16.6Z" transform="translate(-51.714 -4.041)"/><path class="ak" d="M130.1,39.558l7.043,24.787h0a3,3,0,0,0,.437.764L107.989,47.966a1.147,1.147,0,0,1-.437-.764L100.509,22.36h0L99.2,17.719a1.2,1.2,0,0,1,.273-.819c1.2,1.092,7.807,5.132,9.009,5.842,2.02,1.583,2.075,3.549,5.187,6.825a5.3,5.3,0,0,0,1.529,1.2Z" transform="translate(-45.038 -7.673)"/><path class="aj" d="M156.179,49.419l.164-.109c.218-.109.437-.055.491.164l6.988,24.569,6.825-32.54a1.147,1.147,0,0,1,.491-.71h.164c.273-.055.437.164.382.546l-6.879,32.813a4.914,4.914,0,0,1-.437,1.31,1.474,1.474,0,0,1-.546.6.491.491,0,0,1-.546,0,1.474,1.474,0,0,1-.382-.764l-7.1-24.9a1.092,1.092,0,0,1,.382-.928" transform="translate(-70.734 -18.517)"/><path class="ak" d="M116.115,29.533l14.905,8.681c-.382-.164-.983.655-.874,1.092l-15.069-8.736a9.281,9.281,0,0,1-1.256-.819c-2.129-1.693-3.167-3.986-4.532-5.9a6.006,6.006,0,0,0-1.2-1.2l-.491-.273-8.3-4.914a1.2,1.2,0,0,1,.273-.819c.164-.164.382-.382.6-.273l8.353,4.914.491.273a6.006,6.006,0,0,1,1.2,1.2c1.474,1.966,2.566,4.2,4.914,6.115l.983.655" transform="translate(-45.084 -7.422)"/><path class="aj" d="M365.4,29.339c-6.879-3.986-12.885-13.376-13.431-20.965s4.641-10.537,11.52-6.552S376.372,15.2,376.918,22.788s-4.641,10.537-11.52,6.552" transform="translate(-159.785 -0.021)"/><path class="i" d="M371.631,18.5l1.8.928-8.08,12.339L358.2,21.175l2.348.928,3.767,3.549Z" transform="translate(-162.633 -8.4)"/><path class="av" d="M546.652,113.7l-.109,30.52c0,2.238-1.583,3.112-3.549,2.02l-28.5-16.488A7.753,7.753,0,0,1,511,123.634l.109-42.2c0-2.238,1.583-3.112,3.549-2.02L533.33,90.166Z" transform="translate(-232.008 -35.842)"/><path class="aw" d="M552.683,100.046l12.448,21.511v1.42l-9.882-5.733a7.807,7.807,0,0,1-3.549-6.115V99.5Z" transform="translate(-250.487 -45.176)"/><g class="s" transform="translate(283.305 61.749)"><g class="ax"><path class="i" d="M528.227,113.1v35.87l6.169,3.6V116.7Zm9.227,10.373v30.847l6.169,3.6V127.077ZM519,115.12v28.5l6.169,3.6v-28.5Z" transform="translate(-518.945 -113.1)"/></g></g><g class="s" transform="translate(279.865 351.988)"><g class="ay"><path class="i" d="M516.237,668.519l37.781-21.511c4.095-1.856,9.991-3.385,14.2-1.2s10.1,6.06,12.885,7.644,9.445,5.623,4.859,8.08c-13.376,7.371-26.7,15.56-40.347,22.985-2.566,1.419-6.388,1.911-10.319,1.583a27.353,27.353,0,0,1-11.192-3.33l-6.716-3.876c-2.948-1.747-4.532-3.767-4.7-5.678s1.037-3.549,3.549-4.7" transform="translate(-512.633 -644.715)"/></g></g><path class="az" d="M582.391,633a4.2,4.2,0,0,0,.491,2.348c2.184,3.167-.437,2.894-.328,7.48,0,.437-1.856,7.589-1.856,7.589s-4.368,1.037-4.7.983-3-1.092-3-1.092.546-1.31.71-1.693a28.95,28.95,0,0,0,2.4-8.408c.328-1.966.928-5.023.491-7.1Z" transform="translate(-260.158 -287.4)"/><path class="ba" d="M571.672,651.887a19.606,19.606,0,0,0-1.256,2.894,1.365,1.365,0,0,0,.055,1.147c.983,1.42,6.333-.928,8.135-2.457s1.256-2.129,1.529-3.6.546-2.4,1.147-4.641l.382,6.06.491.328a67.654,67.654,0,0,1,1.037-7.807c.164-.819.491-1.8.546-2.239A4.777,4.777,0,0,0,581.5,636.6c.382,1.693-1.092,4.368-1.747,7.753s-4.422,7.48-8.08,7.425" transform="translate(-258.939 -289.034)"/><path class="bb" d="M536.615,479.7c.437,1.856-1.474,8.3-.983,10.81.437,8.135,1.911,15.069,7.371,31.393,0,.164,5.023,10.155,5.351,11.192,3.44,10.646,7.7,22.221,11.3,32.977,1.365,1.037,5.405.71,5.951-1.8-1.147-10.756.109-21.347-1.747-28.664-1.419-5.623-3.221-8.135-6.279-12.284-.928-10.537-1.583-31.721-3.986-39.856Z" transform="translate(-243.155 -217.797)"/><g class="bc" transform="translate(293.46 261.903)"><g class="bd"><path class="be" d="M537.5,479.7c.437,1.856,1.638,5.3,2.129,7.807,1.529,3.767,4.75,8.9,6.934,13.213.655,5.241.491,12.175,3.713,21.893l2.948,22.439c2.457,7.043,4.968,14.141,7.261,20.965,1.365,1.037,5.405.71,5.951-1.8-1.147-10.756.109-21.347-1.747-28.664-1.419-5.624-3.221-8.135-6.279-12.284-.928-10.537-1.583-31.721-3.986-39.856Z" transform="translate(-537.5 -479.7)"/></g></g><path class="az" d="M574.445,652.446a11.506,11.506,0,0,0,.491,3,34.576,34.576,0,0,1,.328,5.3,47.008,47.008,0,0,1-1.2,9.5c-.328,1.31-.874,1.911-1.31,3.713l-7.753,1.2c.764-2.948,1.8-8.9,2.621-13.922l1.474-9.336Z" transform="translate(-256.526 -295.981)"/><path class="ba" d="M574.286,657.4a14.59,14.59,0,0,1,1.037,4.531c.055,2.129-.928,5.46-.819,8.08l.109,4.2c.055,2.457-.546,4.149-3.33,6.169s-4.968,2.566-6.279,1.911-1.747-2.184-.273-6.77,1.583-7.48,2.293-11.629a45.777,45.777,0,0,1-1.31,9.391c-.273,1.092-.437,2.948.874,3.167,5.46.764,5.733-.71,6.169-2.348,1.2-4.477,2.075-12.448,1.529-16.652" transform="translate(-255.984 -298.478)"/><path class="bb" d="M566.1,490.092c6.06,7.589,6.224,11.738,4.914,20.856-.874,6.06-2.675,13.431-3.112,24.132.546,5.514,1.529,11.684.764,20.256-.546,6.279-2.348,17.089-3.658,24.733-1.256,2.348-7.207,1.31-8.19.109.273-10.974.109-18.454-.437-27.3s-1.529-16.6-2.184-25.06c-.546-7.043-2.675-16.543-2.948-24.132-1.147-3.549-11.848-15.4-9.609-15.287Z" transform="translate(-245.782 -221.746)"/><path class="bf" d="M545.933,352.839c-3.167-.491-5.678,1.693-6.934,4.586a17.2,17.2,0,0,0-.764,10.155c2.075,7.534-1.583,10.81-2.894,14.3a15.29,15.29,0,0,0-.764,5.787c.109,2.675,1.638,4.095,2.948,6.5a21.292,21.292,0,0,0,1.911,6.661c3.549,7.152,15.56,10.592,27.08,10.046,9.227-.437,18.126-3.658,22.166-7.425s5.023-14.577-2.457-15.615c-1.747-.273-3.767-.6-5.241-2.4s-.055-4.477.218-8.79-.71-8.572-6.825-10.046c-2.348-.546-4.586-.819-6.552-2.075-4.259-2.784-2.675-7.971-7.316-11.029-2.784-1.856-7.261-2.238-12.175-.874l-2.4.273" transform="translate(-242.7 -159.729)"/></g><g class="bg" transform="translate(255.099 209.217)"><rect class="bh" width="11.356" height="11.378" transform="matrix(0.708, -0.706, 0.706, 0.708, -3.861, 3.299)"/></g><g class="c"><path class="az" d="M467.81,393.342c3.549,3.6,6.988,11.083,10.537,14.3,1.092,1.037,2.784,2.73,4.422,2.184,8.408-2.675.109-4.914.71-7.371-2.129-4.859-8.626-6.879-11.957-12.121l-.6-1.092c-1.31-1.966-2.4-2.511-6.552-2.73a4.313,4.313,0,0,1-2.511-.874l-3-2.238c-.983-.6-1.747-.71-2.075-.491a7.076,7.076,0,0,0-1.092,3.658h0c-.109.437.491,1.147,1.638,1.856l3.931,4.149h.273c3.713,0,5.241.164,6.224.819" transform="translate(-206.89 -173.806)"/><path class="ak" d="M494.152,417.566c5.842-1.365,14.25-3.494,18.509-6.5,2.784-1.965,7.261-9.281,3.767-12.557-.874-1.638-6.115,2.73-8.79,4.2a113.512,113.512,0,0,1-13.213,6.06c-1.966-3.822-6.224-6.5-9.718-9.828a4.64,4.64,0,0,0-1.856-1.147,7.316,7.316,0,0,1-1.147-1.31c-.546-.164-3.6,1.638-4.2,3.33l1.147,1.2c.382.437.382,1.037.71,1.583,1.147,1.8,6.333,9.609,9.5,12.5,1.2,1.092,3,3.112,4.8,2.511l.437-.164" transform="translate(-216.798 -180.013)"/><path class="aj" d="M504.64,419.5c5.842-1.365,14.25-3.494,18.509-6.5,2.4-1.693,6.115-7.371,4.75-11.029-1.256-.874-2.02-1.365-2.948-1.2s-2.457,1.693-4.968,3.44c-3.876,2.675-7.753,3.33-10.428,7.534-1.966,3.112-5.623,6.06-8.954,6.388,1.037.928,2.348,1.8,3.549,1.42l.437-.164" transform="translate(-227.286 -181.948)"/><path class="ak" d="M561.7,433c-2.73,6.279,1.911,9.773.218,14.086l.491,2.948c-4.968,3.549-22.658,3.822-27.135-3.221l-.109-3.494c-.764-1.693-.273-5.951-.055-7.043.71-3.549.382-5.46.764-9.609.109-1.037.273-1.692.382-2.784-3.931-2.948-3.713-8.626-1.365-12.066a29.976,29.976,0,0,0,3.057-5.405,24.562,24.562,0,0,1,.71-3.112,5.131,5.131,0,0,1,.819-1.693c1.147-1.583,2.948-1.8,6.661-.928,7.371,1.693,14.96,5.514,18.345,9.118,2.457,2.621,2.348,5.514.928,11.848a67.484,67.484,0,0,1-3.876,11.411" transform="translate(-242.088 -181.688)"/><path class="aj" d="M563.434,444.179c-2.73,6.279,1.8,9.882.109,14.2l.491,2.894c-4.968,3.876-22.658,3.658-27.135-3.385l.109-3.057c0-.109,8.681,7.7,18.618,3.33,2.129-.928,4.095-5.678,1.31-14.632-.273-.874-3.44-.928-7.917-4.2,3.276,1.42,9.5,3.33,9.828-5.077.164-3.767.71-6.552,2.621-9.172.928-1.256,6.388,5.351,5.569,8.572a79.829,79.829,0,0,1-3.658,10.537" transform="translate(-243.767 -192.922)"/></g><g class="bi" transform="translate(288.798 241.156)"><rect class="bj" width="29.319" height="33.408" transform="matrix(0.991, -0.132, 0.132, 0.991, -3.998, 0.373)"/></g><g class="c"><g class="bk" transform="translate(291.112 255.078)"><g class="bl"><path class="bm" d="M554,467.2l2.129,11.138c-3.549.437-6.115,1.037-9.391.928-.6,0-1.31-.6-1.965-.6-3.494,2.184-2.948,2.184-9.828.874l-1.747-9.172c5.078-.164,5.842.764,10.155,1.365,1.529-1.529,6.169-3.494,10.646-4.477" transform="translate(-533.2 -467.2)"/></g></g></g><g class="bn" transform="translate(290.637 259.171)"><rect class="bo" width="8.19" height="13.562" transform="translate(-0.461 8.016) rotate(-88.5)"/></g><g class="c"><path class="ak" d="M576,422.073c2.293,6.606.71,16.761.6,26.37a3.583,3.583,0,0,1-2.075,3.549,11.245,11.245,0,0,1-2.184.874,52.418,52.418,0,0,1-16.543,3,3.548,3.548,0,0,1-1.638-.382l-1.747.109c.764-.164.491-4.532-.71-5.241l1.693-.437a1.966,1.966,0,0,1,1.092-.764c4.2-1.256,9.718-3.713,14.25-4.422-1.092-5.023-2.511-9.445-2.675-14.2s1.256-11.356,4.914-12.121c2.621-.546,4.259,1.147,5.078,3.658" transform="translate(-250.487 -189.925)"/><path class="az" d="M563.053,391.4a19.327,19.327,0,0,0,.71,9.445c-2.675,2.457-7.371,1.42-8.463-.819.218-1.419.491-2.784.655-4.259Z" transform="translate(-252.122 -177.706)"/></g><g class="bp" transform="translate(303.397 213.694)"><rect class="bq" width="9.336" height="11.143" transform="matrix(0.981, -0.196, 0.196, 0.981, -1.902, 0.414)"/></g><g class="c"><path class="az" d="M546.914,366.255a10.538,10.538,0,0,0-1.747,7.207,3.112,3.112,0,0,1-.273,1.747c-1.256,2.784-1.146,3.658-.491,5.9s.546,3.33,1.31,4.04a4.637,4.637,0,0,0,2.894.983c1.966.109,5.405-1.2,7.371-2.238s1.42-1.365,2.02-2.73c2.075-1.8.71-3.112.055-3.276-1.966-.382-2.293,1.911-3.494,2.4.218-4.04-7.48-10.81-7.644-14.086" transform="translate(-246.957 -166.265)"/><g class="s" transform="translate(0 283.469)"><g class="br"><path class="i" d="M4.131,546.755,47.918,521.8c4.75-2.184,11.629-3.931,16.488-1.365s11.738,7.043,14.96,8.845,10.974,6.5,5.678,9.391c-15.615,8.463-31.011,18.017-46.844,26.643-3,1.638-7.371,2.238-11.957,1.856A31.722,31.722,0,0,1,13.3,563.3l-7.862-4.586C2,556.692.2,554.344-.018,552.16s1.2-4.095,4.149-5.46" transform="translate(0.018 -519.183)"/></g></g><path class="ak" d="M99.751,299.54c5.514-3.057,12.885-5.187,16.325-6.115l4.586-1.2,1.693-.764a8.845,8.845,0,0,0,2.348,5.951l-1.856.928c-.382.218-.983,1.365-1.256,1.693-3,3.44-12.557,8.681-20.037,11.52H101.5a5.192,5.192,0,0,1-5.951-1.2l-2.238-1.583c-4.259-2.784-12.23-12.83-18.508-28.773,1.037-1.2,4.532-2.784,5.187-3.057a6.934,6.934,0,0,1,6.552.928c1.856,1.529,3.986,4.586,5.842,9.664,1.256,3.44,4.7,7.7,7.261,11.793l.164.218" transform="translate(-33.961 -125.539)"/><path class="aj" d="M95.647,311.086,93.408,309.5c-4.259-2.784-12.23-12.83-18.508-28.773,6.333-7.207,15.014,1.42,17.362,7.862,3,8.3,5.787,15.342,7.425,24.187a4.2,4.2,0,0,1-4.04-1.693" transform="translate(-34.007 -126.22)"/><path class="az" d="M165.009,296.132l1.092-1.856a.928.928,0,0,1,1.092-.328c1.529.819,1.147,3.658-.819,5.187,2.4.109,3.167.655,3.33,1.747s-.164,7.917-1.2,8.353-5.241.764-6.06.055.055-.928-.764-1.8-1.42-.273-2.293-.983-1.365-3.986-.6-5.733a4.368,4.368,0,0,1,.491-2.348c1.42-2.129,4.368,0,5.787-2.348" transform="translate(-71.921 -133.432)"/></g><g class="bs" transform="translate(86.435 167.177)"><rect class="bt" width="10.1" height="9.942" transform="translate(-3.184 1.461) rotate(-27.8)"/></g><g class="c"><path class="bu" d="M38.221,539.9c-.218.764-.109,1.365-.437,2.348a27.3,27.3,0,0,0-1.2,3.767c-.6,2.621.218,6.169-.6,9.882a4.06,4.06,0,0,0,.6,3.986c.983,1.31,2.784,3.33,5.187,3.276a3.549,3.549,0,0,0,2.511-1.2,6.005,6.005,0,0,0,1.474-4.422,36.527,36.527,0,0,1-.382-5.078c.055-1.8.382-2.839.328-4.8s-.218-5.023-.218-6.388Z" transform="translate(-16.219 -245.13)"/><path class="bu" d="M77.7,518.375a12.235,12.235,0,0,0-1.2,5.3c.437,1.365,1.42,1.966,2.457,2.894l.764.164c1.911,1.037,2.566,4.586,4.313,6.224s3.713,1.8,6.169,2.238,5.078-.218,4.422-2.293c-1.693-5.132-9.009-10.865-9.172-16.6Z" transform="translate(-34.733 -234.414)"/><path class="bb" d="M83.4,412.583c-.164,9.773-2.293,28.118-2.02,37.727-2.511,2.511-7.48,1.747-9.118-.819-1.037-8.9-2.184-21.457-2.293-26.37a37.727,37.727,0,0,1,1.31-11.411c-1.474-10.7-7.644-25.333-6.169-35.379.655-4.422,3.549-9.172,4.368-12.83,7.316,9.009,12.83,4.7,15.888,3.876,0,3.112.218,2.675.109,5.951-.328,11.029-.874,22.822-1.474,34.287a15.67,15.67,0,0,1-.6,4.968" transform="translate(-29.46 -165.039)"/><g class="bc" transform="translate(35.434 198.461)"><g class="bv"><path class="be" d="M70.627,432.4c-.328-3.876-.6-7.207-.655-9.282a37.781,37.781,0,0,1,1.31-11.411c-1.474-10.7-7.644-25.333-6.169-35.379.655-4.422,3.549-9.172,4.368-12.83,7.316,9.009,12.83,4.7,15.888,3.876v.928l-9.555,7.043,2.348-.546c-.109,12.721-1.638,24.3-1.911,36.853a190.133,190.133,0,0,0-5.624,20.529Z" transform="translate(-64.894 -363.5)"/></g></g><path class="bb" d="M54.921,421.86c-1.747,9.773-6.879,33.523-8.135,43.186-3.167,1.747-7.807,1.147-8.9-1.42-.055-8.9,0-24.842.655-29.7A54.551,54.551,0,0,1,42.145,420c-.655-22.876-2.621-29.264.491-39.365C44,376.217,47.55,371.958,48.97,368.3c1.966,3,4.968,7.261,11.465,6.77.655-.055,6.006-3.931,7.807-4.368C66,384.3,59.453,402.1,56.286,416.892a17.144,17.144,0,0,1-1.42,4.968" transform="translate(-17.194 -167.218)"/><path class="ak" d="M62.217,275.176a5.4,5.4,0,0,1,2.02.655c4.8,2.675,6.5,10.537,7.261,17.417.655,5.951.164,10.919-.055,16.434-.164,4.368.437,8.408.218,12.557-.055,1.2-.546,2.566-.655,3.876a6.279,6.279,0,0,0-.328,2.566c-2.4,9.172-25.169,9.937-28.5,3.713a18.344,18.344,0,0,0,.6-2.784c-2.129-1.966-.928-6.715-1.256-10.046a26.924,26.924,0,0,0-1.365-6.879c-3.112-7.644-7.425-13.486-8.3-19.382-.6-4.04,4.586-9.063,11.356-13.1s15.4-6.06,18.945-5.023" transform="translate(-14.444 -124.815)"/><path class="bw" d="M45.3,335.5a.655.655,0,0,1,.6.655.546.546,0,0,1-.6.546.655.655,0,0,1-.6-.655.546.546,0,0,1,.6-.546" transform="translate(-20.295 -152.324)"/><g class="bk" transform="translate(22.385 170.343)"><g class="bx"><path class="by" d="M47.224,313.326c.874,4.7-.218,12.667-2.566,16.871A53.614,53.614,0,0,0,41,322.444c.109-.382,5.132-14.96,6.169-9.172" transform="translate(-41 -311.961)"/></g></g><path class="aj" d="M71.773,339.76a4.532,4.532,0,0,0-.328,2.348c-2.4,9.172-25.169,9.937-28.5,3.713a18.345,18.345,0,0,0,.6-2.784c-2.129-1.966-.928-6.715-1.256-10.046a26.924,26.924,0,0,0-1.365-6.879c-2.511-6.169-5.787-11.138-7.425-15.942l3.221-3,6.552-1.966a41.5,41.5,0,0,1,2.566,10.264c.6,4.259.819,8.572,1.583,12.885.928,11.52,2.675,19.327,24.35,11.411" transform="translate(-15.21 -138.569)"/><path class="bz" d="M77.869,368.254a3.932,3.932,0,0,0,1.256.764,1.038,1.038,0,0,0,.6-.055l16.816-11.356,2.784-2.457,19.71-16.27a15.567,15.567,0,0,0,1.747-1.42,8.138,8.138,0,0,0-1.2-.71c-.164-.164-.71,0-1.856.71l-17.089,9.991a8.8,8.8,0,0,0-1.8,1.2L77.978,367.435c-.273.218-.382.6-.109.819" transform="translate(-35.283 -152.868)"/><path class="ca" d="M79.915,368.735c-.055.218-.491,1.147.983.6L98.587,358.8l2.784-2.457,19.327-16.98c1.256-1.092,1.693-2.293-.874-.764l-17.089,9.991a8.8,8.8,0,0,0-1.8,1.2Z" transform="translate(-36.237 -153.404)"/></g><g class="cb" transform="translate(37.181 202.228)"><rect class="cc" width="18.891" height="22.5" transform="translate(-3.768 13.449) rotate(-73.74)"/></g><g class="c"><path class="ak" d="M29.893,302.075c-1.583,6.988-.546,18.4-1.31,26.589a4.913,4.913,0,0,0,.109,1.583q0,.164,0,.328c.164,1.8,1.529,2.894,3.221,3.986,4.313,2.784,7.917,6.388,15.615,8.845a9.479,9.479,0,0,0,2.457-.109c.71-.055,1.092.491,1.638.655-.109-1.638,1.8-4.914,3.276-5.46l-1.638-1.037a4.968,4.968,0,0,0-.983-1.42,80.42,80.42,0,0,0-13.049-9.391c.6-2.02.983-4.149,1.365-5.733a97.733,97.733,0,0,0,1.911-9.882c.164-1.256.328-1.911.437-3.221,1.092-9.664-11.138-14.25-13.1-5.733" transform="translate(-12.967 -135.117)"/><path class="az" d="M72.011,274.338l.218-1.147c.218-1.147-.055-3.33.218-5.9L62.675,263.2c-.164,5.46-1.037,6.606-2.075,11.083.109,4.368,11.029,6.333,11.247,1.2a8.19,8.19,0,0,1,.109-1.147" transform="translate(-27.514 -119.5)"/></g><g class="cd" transform="translate(34.942 143.7)"><rect class="ce" width="16.652" height="16.423" transform="matrix(0.665, -0.747, 0.747, 0.665, -6.738, 7.268)"/></g><g class="c"><path class="az" d="M72.992,261.561c-1.2-.764-4.477-2.784-5.514-3.549-2.348-1.747-2.075-3.931-2.73-7.371-2.184-1.583-2.948-2.784-3.112-4.2-.491-3.33,1.42-6.934,3.986-8.9a8.463,8.463,0,0,1,7.7-1.583c5.624,1.2,7.917,5.46,8.19,10.319a3.276,3.276,0,0,1-.164,1.2,15.339,15.339,0,0,0-.491,1.8c-.273,1.42.655,1.966.273,3.767s-2.566,7.152-3.385,7.971-3.44.819-4.7.6" transform="translate(-27.949 -106.996)"/></g><g class="cf" transform="translate(42.486 137.094)"><rect class="cg" width="19.307" height="16.856" transform="translate(-5.528 14.378) rotate(-67.775)"/></g><g class="c"><path class="ch" d="M58.782,241.818a28.125,28.125,0,0,0,2.675,8.353c1.092,1.747.655-.437,1.256-1.638s1.965-1.092,2.4-2.075a3.242,3.242,0,0,0,1.037,1.965c.546.328,1.037.437,1.092-.546.109-3.44,1.693-3.658,1.2-5.733s-.273-2.184.109-2.784,1.856,1.31,3.167,1.856a10.517,10.517,0,0,0,7.807-.764c2.839-1.583,3-4.859.71-7.043-1.31-1.2-2.73-1.529-4.75-2.894a8.79,8.79,0,0,0-11.356,1.2c-5.078,1.037-5.624,5.9-5.3,10.046" transform="translate(-26.679 -103.96)"/><path class="az" d="M66.848,257.618c-2.129-.983-2.348,1.583-2.184,3.112s.983,1.092,1.256,1.966a1.966,1.966,0,0,0,1.638,1.583c1.31.109.71-1.965.6-2.784s0-3.33-1.31-3.931" transform="translate(-29.34 -116.867)"/></g></g></g></g></svg>